<?xml version="1.0" encoding="UTF-8" standalone="no"?>
<svg
   xmlns:dc="http://purl.org/dc/elements/1.1/"
   xmlns:cc="http://creativecommons.org/ns#"
   xmlns:rdf="http://www.w3.org/1999/02/22-rdf-syntax-ns#"
   xmlns:svg="http://www.w3.org/2000/svg"
   xmlns="http://www.w3.org/2000/svg"
   id="svg8"
   version="1.1"
   viewBox="0 0 177 23"
   height="23mm"
   width="177mm">
  <defs
     id="defs2" />
  <metadata
     id="metadata5">
    <rdf:RDF>
      <cc:Work
         rdf:about="">
        <dc:format>image/svg+xml</dc:format>
        <dc:type
           rdf:resource="http://purl.org/dc/dcmitype/StillImage" />
        <dc:title></dc:title>
      </cc:Work>
    </rdf:RDF>
  </metadata>
  <g
     id="layer1">
    <path
       id="path847"
       d="m 2.8456109,22.036201 c -0.797637,-0.162031 -1.330215,-0.467009 -1.729356,-0.990313 -0.432179,-0.566619 -0.597151,-1.289158 -0.332592,-1.456676 0.103951,-0.06582 3.819032,-0.120611 8.255738,-0.121754 6.0911571,-0.0018 8.1065411,-0.04189 8.2292861,-0.164628 0.10407,-0.10407 0.162554,-0.634949 0.162554,-1.47558 0,-1.07235 -0.03928,-1.328103 -0.21427,-1.395255 -0.117849,-0.04524 -3.028581,-0.08328 -6.468288,-0.08457 -6.6607171,-0.0023 -7.6544261,-0.0806 -8.4767021,-0.666109 -0.758755,-0.540277 -0.892929,-1.060664 -0.892929,-3.463118 0,-2.5093781 0.156579,-3.0196461 1.088299,-3.5465711 0.9214,-0.521093 1.873923,-0.585101 8.6760231,-0.583005 7.035201,0.0023 7.632989,0.05294 8.722632,0.740805 0.687249,0.43384 1.035542,1.065247 0.832913,1.5099661 l -0.145237,0.318757 -7.690854,0.03496 -7.6908531,0.03501 -0.03932,1.198683 c -0.02519,0.767303 0.01734,1.266986 0.118183,1.388478 0.130426,0.157158 1.138983,0.190401 5.8641771,0.193297 3.138666,0.0018 6.300209,0.06123 7.025652,0.131807 2.770743,0.269546 3.293373,1.027094 3.198389,4.636049 -0.06445,2.448646 -0.21924,2.825075 -1.408016,3.424066 l -0.806515,0.406387 -7.856766,0.02207 c -4.3212251,0.01216 -8.1111801,-0.0296 -8.4221321,-0.09276 z M 26.913545,15.34939 V 8.5241599 l 0.342489,-0.224405 c 0.31142,-0.204047 1.125566,-0.220827 8.974325,-0.184909 l 8.631837,0.03951 0.812765,0.406387 c 1.301454,0.650725 1.41738,0.960764 1.420119,3.7980861 0.0018,2.126575 -0.02175,2.355519 -0.30256,2.91242 -0.383775,0.761048 -1.082669,1.161241 -2.347164,1.344007 -0.515779,0.07455 -3.578204,0.136749 -6.805394,0.138226 -3.780461,0.0018 -5.960813,0.05256 -6.12963,0.142911 -0.244911,0.131068 -0.262022,0.30797 -0.262022,2.709231 v 2.569 h -2.16738 -2.167385 z m 15.587648,-1.41844 c 0.285418,-0.231119 0.30959,-0.353864 0.299096,-1.518808 -0.01711,-1.897109 0.473975,-1.751752 -5.918237,-1.751752 -3.94832,0 -5.350283,0.04166 -5.471183,0.162554 -0.104694,0.104689 -0.162559,0.643328 -0.162559,1.513274 0,1.066765 0.04713,1.402798 0.22419,1.598444 0.209838,0.231871 0.560012,0.247724 5.471184,0.247724 4.909625,0 5.266962,-0.01615 5.557509,-0.251436 z m 19.36142,7.000103 c -0.484275,-0.679806 -1.06337,-1.348412 -1.286886,-1.485794 -0.378801,-0.23283 -0.813223,-0.249816 -6.400553,-0.250289 -3.883279,-2.01e-4 -5.994171,-0.04795 -5.994171,-0.13522 0,-0.07409 0.441943,-0.683257 0.982096,-1.353698 l 0.982095,-1.218982 4.034229,-9.18e-4 c 3.557551,-9.17e-4 4.043974,-0.02629 4.116668,-0.215747 0.05353,-0.139493 -0.545081,-1.138767 -1.707125,-2.849738 -0.984261,-1.449206 -1.77,-2.693364 -1.74609,-2.764792 0.07084,-0.211646 2.066683,-2.6893131 2.172799,-2.6973471 0.0787,-0.006 10.221797,13.4556311 10.584016,14.0467561 0.08157,0.133129 -0.426498,0.168519 -2.376411,0.165551 l -2.480168,-0.0037 z m 12.970823,1.106589 c -0.833733,-0.144407 -1.500765,-0.5646 -1.890015,-1.190603 -0.308305,-0.495824 -0.312044,-0.554028 -0.351697,-5.473674 -0.03873,-4.803959 -0.03037,-4.995021 0.245448,-5.6362471 0.364825,-0.848059 0.867229,-1.21282 2.001578,-1.453221 1.154225,-0.244618 14.263223,-0.286102 15.544764,-0.0492 1.527957,0.282458 2.105037,0.773116 2.414797,2.0531701 l 0.09015,0.37252 -7.757752,0.0023 c -4.266765,9.18e-4 -7.841783,0.0553 -7.944486,0.12035 -0.272607,0.172666 -0.301386,8.136062 -0.0306,8.462359 0.164821,0.1986 0.940786,0.220216 7.9052,0.220216 h 7.722445 l -0.07582,0.467193 c -0.152734,0.941194 -0.483082,1.400256 -1.294328,1.798646 l -0.764958,0.375663 -7.585848,0.02106 c -4.17221,0.01161 -7.875219,-0.02904 -8.228899,-0.09031 z M 98.708138,17.501193 V 12.82777 h 6.502162 6.50215 v 1.219156 1.219152 h -4.10449 c -3.01175,0 -4.14776,0.04327 -4.26704,0.162554 -0.11105,0.111058 -0.16255,0.767615 -0.16255,2.072561 0,1.304946 0.0515,1.961502 0.16255,2.072565 0.12233,0.122323 1.93259,0.162554 7.31493,0.162554 h 7.15237 v 1.219152 1.219151 h -9.55004 -9.550042 z m 24.453222,4.319444 c -0.23021,-0.351349 -0.22756,-0.358474 0.35694,-0.959699 1.41179,-1.452184 5.0275,-4.311658 7.70061,-6.089996 11.075,-7.3678971 24.9034,-12.1176671 40.9771,-14.0747921 3.21482,-0.391429 4.7548,-0.426603 2.30285,-0.0526 -7.03936,1.073754 -15.03578,3.290749 -21.60611,5.990253 -7.06242,2.901687 -13.53385,6.6868571 -18.89688,11.0528831 -1.56029,1.270221 -4.80889,4.218339 -4.80889,4.364085 0,0.07095 -1.23712,0.123841 -2.89684,0.123841 h -2.89684 z m 15.54602,-1.852206 c -1.65538,-1.207975 -2.99207,-2.255139 -2.97044,-2.32703 0.0539,-0.178976 3.37047,-2.772391 3.5521,-2.777557 0.0801,-0.0023 0.78111,0.468541 1.55781,1.046274 0.77669,0.577732 2.72276,2.006267 4.32459,3.174519 1.60183,1.168253 3.02682,2.209089 3.16663,2.312971 0.21155,0.157186 0.2278,0.238222 0.0968,0.482945 -0.15497,0.289566 -0.20753,0.293989 -3.43755,0.289125 l -3.28018,-0.005 -3.00979,-2.196315 z M 129.86429,13.512 c -0.26076,-0.20614 -1.79872,-1.332156 -3.41769,-2.502262 -1.61897,-1.1701011 -2.98054,-2.1872531 -3.0257,-2.2603231 -0.0451,-0.07307 0.016,-0.282578 0.13588,-0.465564 l 0.21799,-0.332697 h 3.09838 3.0984 l 2.31695,1.702491 c 1.27431,0.9363681 2.31694,1.7542301 2.31694,1.8174681 0,0.06324 -0.71625,0.494315 -1.59167,0.957951 -0.87542,0.463637 -1.8355,0.981298 -2.13352,1.150358 l -0.54184,0.307382 z M 98.708138,9.4421369 v -1.355519 h 9.690412 9.6904 l -0.0388,1.320748 -0.0388,1.3207531 -9.65163,0.03478 -9.651643,0.03478 z"
       style="fill:#000000;stroke-width:0.135462" />
    <path
       transform="scale(0.26458333)"
       id="path849"
       d="m 465.88222,82.470974 c -0.68442,-1.278857 -0.26372,-1.935442 3.43314,-5.358078 6.04241,-5.594212 18.4831,-15.215398 27.19397,-21.030852 32.55407,-21.733393 74.38803,-38.370232 118.98864,-47.3202807 12.5016,-2.5087087 28.43104,-5.0434824 31.01136,-4.9346864 2.05668,0.086717 2.77718,-0.1089443 -9.28572,2.521674 C 608.85386,12.535489 580.61462,22.3753 556.36333,34.524075 532.05609,46.700883 514.01053,59.152238 491.87619,79.019917 l -4.69235,4.211829 -10.26081,0.348343 c -9.7822,0.3321 -10.29718,0.280364 -11.04081,-1.109115 z"
       style="fill:#ff6400;fill-opacity:1;stroke:none;stroke-width:0;stroke-miterlimit:4;stroke-dasharray:none" />
    <path
       transform="scale(0.26458333)"
       id="path859"
       d=""
       style="fill:#ff6400;fill-opacity:1;stroke:#ffffff;stroke-width:0;stroke-miterlimit:4;stroke-dasharray:none;stroke-opacity:1" />
    <path
       transform="scale(0.26458333)"
       id="path861"
       d="m 468.01606,83.55794 c -1.28657,-0.176814 -1.66955,-0.398618 -2.04144,-1.182314 -0.36502,-0.76923 -0.2826,-1.199104 0.41442,-2.161304 1.93992,-2.67798 15.0055,-13.338937 25.38144,-20.710167 22.58964,-16.048043 51.94457,-30.211515 83.21428,-40.150095 18.91742,-6.0126 36.14701,-10.0669861 58.03572,-13.6566903 7.92262,-1.2992943 14.66835,-2.1131105 14.27083,-1.7216568 -0.0409,0.040298 -3.56994,0.8486725 -7.84226,1.7963877 -4.27232,0.9477152 -10.01786,2.2851613 -12.76786,2.9721024 -32.19124,8.041268 -62.88867,20.386894 -88.75,35.692701 -15.86955,9.392256 -28.85192,19.119834 -46.4146,34.77804 l -4.45647,3.973214 -0.90375,0.0012 c -0.49706,7.14e-4 -3.07339,0.07797 -5.72518,0.17178 -8.09585,0.286395 -11.38384,0.338509 -12.41513,0.196781 z"
       style="fill:#ff6400;fill-opacity:1;stroke:#ff6400;stroke-width:1.88976;stroke-miterlimit:4;stroke-dasharray:none;stroke-opacity:1" />
    <path
       transform="scale(0.26458333)"
       id="path863"
       d="m 648.2585,4.0891583 c 0.0454,-0.2797737 -0.12546,-0.7442749 -0.33416,-0.9084377 l -0.15408,-0.1211956 0.23796,-0.037739 c 0.95032,-0.1507197 6.98006,-0.8521817 9.51873,-1.1073484 3.34731,-0.3364456 6.40815,-0.5259265 6.40815,-0.3966958 0,0.1331493 -1.29437,0.3866822 -4.76665,0.9336604 -2.86389,0.451139 -6.51848,1.0710641 -8.90197,1.510034 -1.04172,0.1918543 -1.92776,0.348927 -1.96899,0.3490506 -0.0505,1.512e-4 -0.0632,-0.072188 -0.039,-0.2213281 z"
       style="fill:#ff6400;fill-opacity:1;stroke:#ff6400;stroke-width:0.119309;stroke-miterlimit:4;stroke-dasharray:none;stroke-opacity:1" />
    <path
       transform="scale(0.26458333)"
       id="path865"
       d=""
       style="fill:#ff6400;fill-opacity:1;stroke:#ff6400;stroke-width:0.0149137;stroke-miterlimit:4;stroke-dasharray:none;stroke-opacity:1" />
    <path
       transform="scale(0.26458333)"
       id="path867"
       d="m 648.16087,4.3591468 c 0.003,-0.00939 0.0106,-0.029414 0.0169,-0.044503 l 0.0115,-0.027433 0.0118,0.0228 c 0.006,0.01254 0.0188,0.0303 0.0274,0.039467 l 0.0156,0.016667 -0.0299,0.00495 c -0.0523,0.00865 -0.0593,0.0071 -0.0532,-0.011947 z"
       style="fill:#ff6400;fill-opacity:1;stroke:#ff6400;stroke-width:0.0149137;stroke-miterlimit:4;stroke-dasharray:none;stroke-opacity:1" />
    <path
       transform="scale(0.26458333)"
       id="path869"
       d="m 663.96666,1.5842173 c 0.008,-0.00879 0.018,-0.022551 0.0215,-0.030581 0.008,-0.019133 0.008,-0.056608 -5e-5,-0.068474 -0.003,-0.00497 -0.006,-0.010208 -0.006,-0.01163 0,-0.00414 0.0507,0.00764 0.0704,0.016382 0.0231,0.01024 0.0322,0.018535 0.0322,0.029595 0,0.00992 -0.0182,0.027522 -0.0442,0.042704 -0.0172,0.010036 -0.0803,0.037985 -0.0857,0.037985 -0.002,0 0.004,-0.00719 0.0122,-0.015981 z"
       style="fill:#ff6400;fill-opacity:1;stroke:#ff6400;stroke-width:0.00745683;stroke-miterlimit:4;stroke-dasharray:none;stroke-opacity:1" />
    <path
       transform="scale(0.26458333)"
       id="path871"
       d="M 19.561682,83.003311 C 11.46919,82.673183 8.0473858,82.263903 7.0616823,81.508191 4.6749333,79.678337 3.2366558,77.594102 3.2203248,75.941607 3.2048891,74.379693 3.4205346,74.331676 10.883013,74.235396 15.106228,74.18091 29.168728,73.939837 42.133014,73.699682 L 65.704442,73.263035 V 67.54875 61.834464 L 39.633014,61.454298 C 11.104279,61.038299 9.6878735,60.833919 7.01,56.746968 5.9261213,55.09276 5.7063027,53.293701 5.7154001,46.151592 5.7282198,36.087294 6.2080726,34.849145 10.944102,32.660134 c 3.229583,-1.492725 4.175199,-1.539956 30.831769,-1.539956 26.65862,0 27.601963,0.04713 30.832613,1.54033 3.640508,1.682638 5.884601,4.376352 5.178601,6.216167 -0.406814,1.060135 -3.239407,1.172075 -29.659064,1.172075 H 18.918728 v 4.957845 c 0,3.181888 0.319831,5.164844 0.892857,5.535714 0.491071,0.317828 12.303571,0.755324 26.25,0.972212 22.370626,0.347899 25.717916,0.547612 28.4203,1.69568 4.74005,2.01374 5.5083,4.063429 5.508136,14.695692 -1.57e-4,10.127377 -0.44075,11.427742 -4.589,13.54402 -2.509381,1.280192 -4.629762,1.432736 -23.726115,1.706895 C 40.141151,83.322394 25.6902,83.25332 19.561682,83.003311 Z"
       style="fill:#ffffff;fill-opacity:1;stroke:#ffffff;stroke-width:2.48315;stroke-miterlimit:4;stroke-dasharray:none;stroke-opacity:1" />
    <path
       transform="scale(0.26458333)"
       id="path873"
       d="M 101.8482,57.998228 V 32.382804 l 0.75041,-0.53434 c 0.41273,-0.293886 1.4071,-0.641893 2.20971,-0.773348 0.86203,-0.141186 14.35527,-0.239606 32.96802,-0.240471 l 31.50872,-0.0015 2.52489,1.267049 c 4.28465,2.150139 5.29711,3.430338 5.78403,7.313636 0.34282,2.734045 0.34535,13.269979 0.004,15.375562 -0.60747,3.743719 -3.01405,6.270318 -6.9912,7.339867 -2.52869,0.680025 -5.7259,0.802728 -27.08948,1.039647 -20.32615,0.225413 -24.44743,0.361248 -24.9071,0.820918 -0.44751,0.447515 -0.58785,3.013742 -0.59323,10.848091 l -0.006,8.7757 h -8.08122 -8.08122 z m 52.90674,-4.41109 c 5.12202,-0.201272 6.07459,-0.428055 6.74791,-1.6065 0.22875,-0.400351 0.32316,-1.859906 0.32316,-4.995703 0,-5.302892 -0.0879,-5.5374 -2.33746,-6.233007 -1.33399,-0.412502 -2.94289,-0.448565 -20.01217,-0.448565 -10.20885,0 -19.10092,0.09213 -19.76014,0.204733 -1.00636,0.171897 -1.22912,0.313655 -1.38896,0.883883 -0.24939,0.889712 -0.24686,9.568606 0.003,10.461809 0.3715,1.327769 1.14978,1.567366 5.60319,1.724969 6.12189,0.21665 25.38803,0.221889 30.82143,0.0084 z"
       style="fill:#ffffff;fill-opacity:1;stroke:#ffffff;stroke-width:0.62709;stroke-miterlimit:4;stroke-dasharray:none;stroke-opacity:1" />
    <path
       transform="scale(0.26458333)"
       id="path875"
       d="m 234.69958,80.088403 c -3.02415,-4.181865 -5.11707,-6.5103 -6.32977,-7.042067 -0.76054,-0.333491 -3.88855,-0.413091 -22.41492,-0.570405 -20.1593,-0.171178 -23.55159,-0.270688 -23.544,-0.690634 0.003,-0.191934 3.13356,-4.312566 5.55282,-7.310039 l 1.64149,-2.033826 14.89975,-0.08363 c 15.96909,-0.08963 16.24586,-0.112233 15.89865,-1.298561 -0.2876,-0.982661 -2.88689,-5.192909 -7.19763,-11.65848 -2.31733,-3.475716 -4.57168,-6.957344 -5.00965,-7.736952 l -0.79631,-1.417469 1.80698,-2.370603 c 0.99384,-1.303832 2.78576,-3.543306 3.98204,-4.976611 l 2.17506,-2.606008 0.83946,0.96451 c 1.65364,1.9 36.07325,47.540624 38.36635,50.874044 l 0.80463,1.169676 -0.78075,0.156149 c -0.42942,0.08588 -4.50768,0.156152 -9.06282,0.156152 h -8.28207 z"
       style="fill:#ffffff;fill-opacity:1;stroke:#ffffff;stroke-width:0.62709;stroke-miterlimit:4;stroke-dasharray:none;stroke-opacity:1" />
    <path
       transform="scale(0.26458333)"
       id="path877"
       d="m 290.7809,83.376603 c -8.80716,-0.187004 -9.39843,-0.269612 -11.73629,-1.639684 -1.60749,-0.942051 -2.87859,-2.320008 -3.62675,-3.931643 l -0.64479,-1.38896 -0.24594,-15.783633 c -0.28986,-18.602722 -0.16118,-21.471731 1.07967,-24.071693 1.11105,-2.328006 2.70166,-3.693779 5.3032,-4.553598 2.6793,-0.885519 6.9522,-1.101735 25.90707,-1.310937 17.53472,-0.193529 32.9472,0.143091 35.72701,0.780305 4.59117,1.052431 6.73401,2.832019 7.73948,6.427491 0.21363,0.763927 0.444,1.587833 0.51193,1.830901 0.11696,0.41849 -1.12705,0.443315 -23.44268,0.467813 -27.78032,0.0305 -35.47651,0.18398 -35.80365,0.714023 -0.45913,0.743895 -0.64199,5.532517 -0.64199,16.811506 0,12.930147 0.12239,14.86937 0.96733,15.326265 0.88776,0.480057 10.87096,0.674206 35.6201,0.692729 l 22.95037,0.01717 -0.17034,1.284033 c -0.46898,3.535349 -1.96344,5.51842 -5.45057,7.232651 l -2.14658,1.055226 -21.84455,0.107152 c -12.0145,0.05893 -25.53791,0.02873 -30.05203,-0.06712 z"
       style="fill:#ffffff;fill-opacity:1;stroke:#ffffff;stroke-width:0.62709;stroke-miterlimit:4;stroke-dasharray:none;stroke-opacity:1" />
    <path
       transform="scale(0.26458333)"
       id="path879"
       d="M 373.10833,66.062253 V 48.510852 h 24.4962 24.4962 v 4.52397 4.52397 l -15.34169,0.08498 c -11.75681,0.06512 -15.47193,0.15943 -15.89904,0.403593 -0.33344,0.190614 -0.63751,0.697833 -0.75688,1.262562 -0.30628,1.44888 -0.205,13.453231 0.12011,14.237193 0.22006,0.530658 0.49832,0.697081 1.36657,0.817316 0.59963,0.08304 12.88061,0.224843 27.29107,0.31512 l 26.20083,0.16414 v 4.384979 4.384978 h -35.98669 -35.98668 z"
       style="fill:#ffffff;fill-opacity:1;stroke:#ffffff;stroke-width:0.62709;stroke-miterlimit:4;stroke-dasharray:none;stroke-opacity:1" />
    <path
       transform="scale(0.26458333)"
       id="path881"
       d="m 373.28202,35.66453 v -5.083885 h 36.4473 36.4473 l -0.11191,4.861359 c -0.0616,2.673747 -0.12677,4.877763 -0.14494,4.897812 -0.0182,0.02005 -16.3691,0.120187 -36.33539,0.222527 l -36.30236,0.186073 z"
       style="fill:#ffffff;fill-opacity:1;stroke:#ffffff;stroke-width:0.62709;stroke-miterlimit:4;stroke-dasharray:none;stroke-opacity:1" />
    <path
       transform="scale(0.26458333)"
       id="path883"
       d="m 489.32329,49.794171 c -1.80564,-1.3655 -7.31637,-5.422454 -12.24606,-9.015452 -10.87128,-7.923522 -10.66277,-7.749962 -10.33767,-8.605059 0.13568,-0.356856 0.47888,-0.974913 0.76267,-1.37346 l 0.51598,-0.724632 h 11.50352 11.50351 l 6.68499,4.933062 c 3.67675,2.713183 7.63807,5.693298 8.80295,6.622477 l 2.11797,1.689417 -1.44644,0.9177 c -0.79554,0.504736 -4.23067,2.422365 -7.63362,4.261399 -3.40295,1.839034 -6.29515,3.446209 -6.4271,3.5715 -0.13195,0.125291 -0.30241,0.222846 -0.37881,0.216788 -0.0764,-0.0061 -1.61624,-1.12824 -3.42189,-2.49374 z"
       style="fill:#ffffff;fill-opacity:1;stroke:#ffffff;stroke-width:0.62709;stroke-miterlimit:4;stroke-dasharray:none;stroke-opacity:1" />
    <path
       transform="scale(0.26458333)"
       id="path885"
       d="M 531.37089,80.526861 C 522.20221,73.775667 515.52252,68.724822 514.37354,67.674299 l -1.21073,-1.10697 2.31649,-1.894036 c 3.53387,-2.889413 7.49833,-5.952438 9.36158,-7.232957 l 1.67747,-1.152843 1.89537,1.27898 c 1.04245,0.70344 8.1289,5.845365 15.74766,11.426501 7.61876,5.581135 14.56255,10.664509 15.43065,11.296384 1.68143,1.223885 1.86272,1.654346 1.09578,2.601839 l -0.48258,0.596187 -12.33373,0.05384 -12.33373,0.05384 z"
       style="fill:#ffffff;fill-opacity:1;stroke:#ffffff;stroke-width:0.62709;stroke-miterlimit:4;stroke-dasharray:none;stroke-opacity:1" />
  </g>
</svg>
